{
  "accessors": [
    {
      "bufferView": 2,
      "componentType": 5126,
      "count": 210,
      "max": [
        -1.1477899551391602,
        -2.563687324523926,
        0.08000005036592484
      ],
      "min": [
        -2.6276779174804688,
        -3.66401743888855,
        -0.08000005036592484
      ],
      "type": "VEC3"
    },
    {
      "bufferView": 2,
      "byteOffset": 2520,
      "componentType": 5126,
      "count": 210,
      "max": [
        0.9759102463722229,
        0.9412171244621277,
        0.9999940395355225
      ],
      "min": [
        -0.9965915679931641,
        -0.9415577054023743,
        -0.9999993443489075
      ],
      "type": "VEC3"
    },
    {
      "bufferView": 3,
      "componentType": 5126,
      "count": 210,
      "max": [
        0.9146803021430969,
        0.9984378218650818,
        0.9999785423278809,
        1.0
      ],
      "min": [
        -0.12914638221263885,
        -0.16249674558639526,
        -0.9997457265853882,
        -1.0
      ],
      "type": "VEC4"
    },
    {
      "bufferView": 1,
      "componentType": 5126,
      "count": 210,
      "max": [
        0.9141549468040466,
        0.9998536109924316
      ],
      "min": [
        0.00014636297419201583,
        0.00014636297419201583
      ],
      "type": "VEC2"
    },
    {
      "bufferView": 1,
      "byteOffset": 1680,
      "componentType": 5126,
      "count": 210,
      "max": [
        0.9141549468040466,
        0.9998536109924316
      ],
      "min": [
        0.00014636297419201583,
        0.00014636297419201583
      ],
      "type": "VEC2"
    },
    {
      "bufferView": 1,
      "byteOffset": 3360,
      "componentType": 5126,
      "count": 210,
      "max": [
        0.9141549468040466,
        0.9998536109924316
      ],
      "min": [
        0.00014636297419201583,
        0.00014636297419201583
      ],
      "type": "VEC2"
    },
    {
      "bufferView": 1,
      "byteOffset": 5040,
      "componentType": 5126,
      "count": 210,
      "max": [
        0.9141549468040466,
        0.9998536109924316
      ],
      "min": [
        0.00014636297419201583,
        0.00014636297419201583
      ],
      "type": "VEC2"
    },
    {
      "bufferView": 0,
      "componentType": 5125,
      "count": 684,
      "type": "SCALAR"
    },
    {
      "bufferView": 2,
      "byteOffset": 5040,
      "componentType": 5126,
      "count": 911,
      "max": [
        3.26767635345459,
        3.904829263687134,
        0.08000005036592484
      ],
      "min": [
        -3.904829263687134,
        -3.904829263687134,
        -0.08000005036592484
      ],
      "type": "VEC3"
    },
    {
      "bufferView": 2,
      "byteOffset": 15972,
      "componentType": 5126,
      "count": 911,
      "max": [
        1.0,
        1.0,
        0.9999940395355225
      ],
      "min": [
        -1.0,
        -1.0,
        -1.0
      ],
      "type": "VEC3"
    },
    {
      "bufferView": 3,
      "byteOffset": 3360,
      "componentType": 5126,
      "count": 911,
      "max": [
        0.9984427094459534,
        0.9999560713768005,
        0.9999998807907104,
        1.0
      ],
      "min": [
        -0.5514188408851624,
        -0.9999063611030579,
        -0.9999983310699463,
        1.0
      ],
      "type": "VEC4"
    },
    {
      "bufferView": 1,
      "byteOffset": 6720,
      "componentType": 5126,
      "count": 911,
      "max": [
        0.8264016509056091,
        0.999854326248169
      ],
      "min": [
        0.00014574472152162343,
        0.00014574472152162343
      ],
      "type": "VEC2"
    },
    {
      "bufferView": 1,
      "byteOffset": 14008,
      "componentType": 5126,
      "count": 911,
      "max": [
        0.8264016509056091,
        0.999854326248169
      ],
      "min": [
        0.00014574472152162343,
        0.00014574472152162343
      ],
      "type": "VEC2"
    },
    {
      "bufferView": 1,
      "byteOffset": 21296,
      "componentType": 5126,
      "count": 911,
      "max": [
        0.8264016509056091,
        0.999854326248169
      ],
      "min": [
        0.00014574472152162343,
        0.00014574472152162343
      ],
      "type": "VEC2"
    },
    {
      "bufferView": 1,
      "byteOffset": 28584,
      "componentType": 5126,
      "count": 911,
      "max": [
        0.8264016509056091,
        0.999854326248169
      ],
      "min": [
        0.00014574472152162343,
        0.00014574472152162343
      ],
      "type": "VEC2"
    },
    {
      "bufferView": 0,
      "byteOffset": 2736,
      "componentType": 5125,
      "count": 3222,
      "type": "SCALAR"
    },
    {
      "bufferView": 2,
      "byteOffset": 26904,
      "componentType": 5126,
      "count": 38236,
      "max": [
        6.009856224060059,
        5.996523380279541,
        0.808491587638855
      ],
      "min": [
        -5.996523380279541,
        -5.996521949768066,
        -0.029064536094665527
      ],
      "type": "VEC3"
    },
    {
      "bufferView": 2,
      "byteOffset": 485736,
      "componentType": 5126,
      "count": 38236,
      "max": [
        0.9999999403953552,
        1.0,
        1.0
      ],
      "min": [
        -1.0,
        -1.0,
        -0.9240718483924866
      ],
      "type": "VEC3"
    },
    {
      "bufferView": 3,
      "byteOffset": 17936,
      "componentType": 5126,
      "count": 38236,
      "max": [
        0.9999672770500183,
        0.9999904036521912,
        0.9999992251396179,
        1.0
      ],
      "min": [
        -0.9999679327011108,
        -0.9999974966049194,
        -0.9999988079071045,
        -1.0
      ],
      "type": "VEC4"
    },
    {
      "bufferView": 1,
      "byteOffset": 35872,
      "componentType": 5126,
      "count": 38236,
      "max": [
        0.9850037693977356,
        0.9995256066322327
      ],
      "min": [
        0.0004743337631225586,
        0.0004743337631225586
      ],
      "type": "VEC2"
    },
    {
      "bufferView": 1,
      "byteOffset": 341760,
      "componentType": 5126,
      "count": 38236,
      "max": [
        0.9850037693977356,
        0.9995256066322327
      ],
      "min": [
        0.0004743337631225586,
        0.0004743337631225586
      ],
      "type": "VEC2"
    },
    {
      "bufferView": 1,
      "byteOffset": 647648,
      "componentType": 5126,
      "count": 38236,
      "max": [
        0.9850037693977356,
        0.9995256066322327
      ],
      "min": [
        0.0004743337631225586,
        0.0004743337631225586
      ],
      "type": "VEC2"
    },
    {
      "bufferView": 1,
      "byteOffset": 953536,
      "componentType": 5126,
      "count": 38236,
      "max": [
        0.9850037693977356,
        0.9995256066322327
      ],
      "min": [
        0.0004743337631225586,
        0.0004743337631225586
      ],
      "type": "VEC2"
    },
    {
      "bufferView": 0,
      "byteOffset": 15624,
      "componentType": 5125,
      "count": 212565,
      "type": "SCALAR"
    },
    {
      "bufferView": 2,
      "byteOffset": 944568,
      "componentType": 5126,
      "count": 11766,
      "max": [
        0.4351602792739868,
        0.15403705835342407,
        0.1816909909248352
      ],
      "min": [
        -0.42312300205230713,
        -0.7477627396583557,
        -5.551453590393066
      ],
      "type": "VEC3"
    },
    {
      "bufferView": 2,
      "byteOffset": 1085760,
      "componentType": 5126,
      "count": 11766,
      "max": [
        0.9999932050704956,
        1.0,
        1.0
      ],
      "min": [
        -1.0,
        -1.0,
        -1.0
      ],
      "type": "VEC3"
    },
    {
      "bufferView": 3,
      "byteOffset": 629712,
      "componentType": 5126,
      "count": 11766,
      "max": [
        1.0,
        1.0,
        1.0,
        1.0
      ],
      "min": [
        -1.0,
        -1.0,
        -0.9998812675476074,
        -1.0
      ],
      "type": "VEC4"
    },
    {
      "bufferView": 1,
      "byteOffset": 1259424,
      "componentType": 5126,
      "count": 11766,
      "max": [
        0.7667357325553894,
        0.9985395073890686
      ],
      "min": [
        0.0014605149626731873,
        0.0014604926109313965
      ],
      "type": "VEC2"
    },
    {
      "bufferView": 1,
      "byteOffset": 1353552,
      "componentType": 5126,
      "count": 11766,
      "max": [
        0.7667357325553894,
        0.9985395073890686
      ],
      "min": [
        0.0014605149626731873,
        0.0014604926109313965
      ],
      "type": "VEC2"
    },
    {
      "bufferView": 1,
      "byteOffset": 1447680,
      "componentType": 5126,
      "count": 11766,
      "max": [
        0.7667357325553894,
        0.9985395073890686
      ],
      "min": [
        0.0014605149626731873,
        0.0014604926109313965
      ],
      "type": "VEC2"
    },
    {
      "bufferView": 0,
      "byteOffset": 865884,
      "componentType": 5125,
      "count": 55461,
      "type": "SCALAR"
    },
    {
      "bufferView": 2,
      "byteOffset": 1226952,
      "componentType": 5126,
      "count": 20501,
      "max": [
        2.7678399085998535,
        4.28046989440918,
        0.1816909909248352
      ],
      "min": [
        1.6009995937347412,
        3.0546152591705322,
        -5.551453590393066
      ],
      "type": "VEC3"
    },
    {
      "bufferView": 2,
      "byteOffset": 1472964,
      "componentType": 5126,
      "count": 20501,
      "max": [
        0.999947190284729,
        0.9999435544013977,
        1.0
      ],
      "min": [
        -0.999947190284729,
        -0.9999435544013977,
        -1.0
      ],
      "type": "VEC3"
    },
    {
      "bufferView": 3,
      "byteOffset": 817968,
      "componentType": 5126,
      "count": 20501,
      "max": [
        0.9999864101409912,
        0.9999978542327881,
        0.9997255802154541,
        1.0
      ],
      "min": [
        -1.0,
        -1.0,
        -1.0,
        -1.0
      ],
      "type": "VEC4"
    },
    {
      "bufferView": 1,
      "byteOffset": 1541808,
      "componentType": 5126,
      "count": 20501,
      "max": [
        0.987023115158081,
        0.9986965656280518
      ],
      "min": [
        0.001303344964981079,
        0.0013033151626586914
      ],
      "type": "VEC2"
    },
    {
      "bufferView": 1,
      "byteOffset": 1705816,
      "componentType": 5126,
      "count": 20501,
      "max": [
        0.987023115158081,
        0.9986965656280518
      ],
      "min": [
        0.001303344964981079,
        0.0013033151626586914
      ],
      "type": "VEC2"
    },
    {
      "bufferView": 1,
      "byteOffset": 1869824,
      "componentType": 5126,
      "count": 20501,
      "max": [
        0.987023115158081,
        0.9986965656280518
      ],
      "min": [
        0.001303344964981079,
        0.0013033151626586914
      ],
      "type": "VEC2"
    },
    {
      "bufferView": 1,
      "byteOffset": 2033832,
      "componentType": 5126,
      "count": 20501,
      "max": [
        0.987023115158081,
        0.9986965656280518
      ],
      "min": [
        0.001303344964981079,
        0.0013033151626586914
      ],
      "type": "VEC2"
    },
    {
      "bufferView": 0,
      "byteOffset": 1087728,
      "componentType": 5125,
      "count": 99141,
      "type": "SCALAR"
    },
    {
      "bufferView": 2,
      "byteOffset": 1718976,
      "componentType": 5126,
      "count": 20505,
      "max": [
        2.7678403854370117,
        -3.648343086242676,
        0.181690514087677
      ],
      "min": [
        1.6010010242462158,
        -4.874196529388428,
        -5.551454067230225
      ],
      "type": "VEC3"
    },
    {
      "bufferView": 2,
      "byteOffset": 1965036,
      "componentType": 5126,
      "count": 20505,
      "max": [
        0.9999473094940186,
        0.999943733215332,
        1.0
      ],
      "min": [
        -0.9999473094940186,
        -0.999943733215332,
        -1.0
      ],
      "type": "VEC3"
    },
    {
      "bufferView": 3,
      "byteOffset": 1145984,
      "componentType": 5126,
      "count": 20505,
      "max": [
        0.999999463558197,
        0.9999833703041077,
        0.9997484087944031,
        1.0
      ],
      "min": [
        -0.9999831318855286,
        -1.0,
        -1.0,
        -1.0
      ],
      "type": "VEC4"
    },
    {
      "bufferView": 1,
      "byteOffset": 2197840,
      "componentType": 5126,
      "count": 20505,
      "max": [
        0.987023115158081,
        0.9986965656280518
      ],
      "min": [
        0.001303344964981079,
        0.0013033151626586914
      ],
      "type": "VEC2"
    },
    {
      "bufferView": 1,
      "byteOffset": 2361880,
      "componentType": 5126,
      "count": 20505,
      "max": [
        0.987023115158081,
        0.9986965656280518
      ],
      "min": [
        0.001303344964981079,
        0.0013033151626586914
      ],
      "type": "VEC2"
    },
    {
      "bufferView": 1,
      "byteOffset": 2525920,
      "componentType": 5126,
      "count": 20505,
      "max": [
        0.987023115158081,
        0.9986965656280518
      ],
      "min": [
        0.001303344964981079,
        0.0013033151626586914
      ],
      "type": "VEC2"
    },
    {
      "bufferView": 1,
      "byteOffset": 2689960,
      "componentType": 5126,
      "count": 20505,
      "max": [
        0.987023115158081,
        0.9986965656280518
      ],
      "min": [
        0.001303344964981079,
        0.0013033151626586914
      ],
      "type": "VEC2"
    },
    {
      "bufferView": 0,
      "byteOffset": 1484292,
      "componentType": 5125,
      "count": 99141,
      "type": "SCALAR"
    },
    {
      "bufferView": 2,
      "byteOffset": 2211096,
      "componentType": 5126,
      "count": 20507,
      "max": [
        7.124643802642822,
        -3.6483418941497803,
        0.181690514087677
      ],
      "min": [
        5.957803726196289,
        -4.874196529388428,
        -5.551454067230225
      ],
      "type": "VEC3"
    },
    {
      "bufferView": 2,
      "byteOffset": 2457180,
      "componentType": 5126,
      "count": 20507,
      "max": [
        0.999947190284729,
        0.9999435544013977,
        1.0
      ],
      "min": [
        -0.9999471306800842,
        -0.999943733215332,
        -1.0
      ],
      "type": "VEC3"
    },
    {
      "bufferView": 3,
      "byteOffset": 1474064,
      "componentType": 5126,
      "count": 20507,
      "max": [
        1.0,
        1.0,
        0.9997258186340332,
        1.0
      ],
      "min": [
        -0.9999864101409912,
        -0.9999978542327881,
        -1.0,
        -1.0
      ],
      "type": "VEC4"
    },
    {
      "bufferView": 1,
      "byteOffset": 2854000,
      "componentType": 5126,
      "count": 20507,
      "max": [
        0.987023115158081,
        0.9986965656280518
      ],
      "min": [
        0.001303344964981079,
        0.0013033151626586914
      ],
      "type": "VEC2"
    },
    {
      "bufferView": 1,
      "byteOffset": 3018056,
      "componentType": 5126,
      "count": 20507,
      "max": [
        0.987023115158081,
        0.9986965656280518
      ],
      "min": [
        0.001303344964981079,
        0.0013033151626586914
      ],
      "type": "VEC2"
    },
    {
      "bufferView": 1,
      "byteOffset": 3182112,
      "componentType": 5126,
      "count": 20507,
      "max": [
        0.987023115158081,
        0.9986965656280518
      ],
      "min": [
        0.001303344964981079,
        0.0013033151626586914
      ],
      "type": "VEC2"
    },
    {
      "bufferView": 1,
      "byteOffset": 3346168,
      "componentType": 5126,
      "count": 20507,
      "max": [
        0.987023115158081,
        0.9986965656280518
      ],
      "min": [
        0.001303344964981079,
        0.0013033151626586914
      ],
      "type": "VEC2"
    },
    {
      "bufferView": 0,
      "byteOffset": 1880856,
      "componentType": 5125,
      "count": 99141,
      "type": "SCALAR"
    },
    {
      "bufferView": 2,
      "byteOffset": 2703264,
      "componentType": 5126,
      "count": 20497,
      "max": [
        9.14876651763916,
        0.15403787791728973,
        0.1816900372505188
      ],
      "min": [
        8.290481567382813,
        -0.7477638721466064,
        -5.551454544067383
      ],
      "type": "VEC3"
    },
    {
      "bufferView": 2,
      "byteOffset": 2949228,
      "componentType": 5126,
      "count": 20497,
      "max": [
        1.0,
        1.0,
        1.0
      ],
      "min": [
        -0.9999932050704956,
        -1.0,
        -1.0
      ],
      "type": "VEC3"
    },
    {
      "bufferView": 3,
      "byteOffset": 1802176,
      "componentType": 5126,
      "count": 20497,
      "max": [
        1.0,
        1.0,
        0.9997634291648865,
        1.0
      ],
      "min": [
        -1.0,
        -1.0,
        -1.0,
        -1.0
      ],
      "type": "VEC4"
    },
    {
      "bufferView": 1,
      "byteOffset": 3510224,
      "componentType": 5126,
      "count": 20497,
      "max": [
        0.987023115158081,
        0.9986965656280518
      ],
      "min": [
        0.001303344964981079,
        0.0013033151626586914
      ],
      "type": "VEC2"
    },
    {
      "bufferView": 1,
      "byteOffset": 3674200,
      "componentType": 5126,
      "count": 20497,
      "max": [
        0.987023115158081,
        0.9986965656280518
      ],
      "min": [
        0.001303344964981079,
        0.0013033151626586914
      ],
      "type": "VEC2"
    },
    {
      "bufferView": 1,
      "byteOffset": 3838176,
      "componentType": 5126,
      "count": 20497,
      "max": [
        0.987023115158081,
        0.9986965656280518
      ],
      "min": [
        0.001303344964981079,
        0.0013033151626586914
      ],
      "type": "VEC2"
    },
    {
      "bufferView": 1,
      "byteOffset": 4002152,
      "componentType": 5126,
      "count": 20497,
      "max": [
        0.987023115158081,
        0.9986965656280518
      ],
      "min": [
        0.001303344964981079,
        0.0013033151626586914
      ],
      "type": "VEC2"
    },
    {
      "bufferView": 0,
      "byteOffset": 2277420,
      "componentType": 5125,
      "count": 99108,
      "type": "SCALAR"
    },
    {
      "bufferView": 2,
      "byteOffset": 3195192,
      "componentType": 5126,
      "count": 20497,
      "max": [
        7.1246418952941895,
        4.280468940734863,
        0.1816900372505188
      ],
      "min": [
        5.9578022956848145,
        3.0546159744262695,
        -5.551454544067383
      ],
      "type": "VEC3"
    },
    {
      "bufferView": 2,
      "byteOffset": 3441156,
      "componentType": 5126,
      "count": 20497,
      "max": [
        0.999947190284729,
        0.9999435544013977,
        1.0
      ],
      "min": [
        -0.9999473094940186,
        -0.9999435544013977,
        -1.0
      ],
      "type": "VEC3"
    },
    {
      "bufferView": 3,
      "byteOffset": 2130128,
      "componentType": 5126,
      "count": 20497,
      "max": [
        0.9999831318855286,
        1.0,
        0.9997490644454956,
        1.0
      ],
      "min": [
        -0.9999995231628418,
        -0.9999833703041077,
        -1.0,
        -1.0
      ],
      "type": "VEC4"
    },
    {
      "bufferView": 1,
      "byteOffset": 4166128,
      "componentType": 5126,
      "count": 20497,
      "max": [
        0.987023115158081,
        0.9986965656280518
      ],
      "min": [
        0.001303344964981079,
        0.0013033151626586914
      ],
      "type": "VEC2"
    },
    {
      "bufferView": 1,
      "byteOffset": 4330104,
      "componentType": 5126,
      "count": 20497,
      "max": [
        0.987023115158081,
        0.9986965656280518
      ],
      "min": [
        0.001303344964981079,
        0.0013033151626586914
      ],
      "type": "VEC2"
    },
    {
      "bufferView": 1,
      "byteOffset": 4494080,
      "componentType": 5126,
      "count": 20497,
      "max": [
        0.987023115158081,
        0.9986965656280518
      ],
      "min": [
        0.001303344964981079,
        0.0013033151626586914
      ],
      "type": "VEC2"
    },
    {
      "bufferView": 1,
      "byteOffset": 4658056,
      "componentType": 5126,
      "count": 20497,
      "max": [
        0.987023115158081,
        0.9986965656280518
      ],
      "min": [
        0.001303344964981079,
        0.0013033151626586914
      ],
      "type": "VEC2"
    },
    {
      "bufferView": 0,
      "byteOffset": 2673852,
      "componentType": 5125,
      "count": 99141,
      "type": "SCALAR"
    },
    {
      "bufferView": 2,
      "byteOffset": 3687120,
      "componentType": 5126,
      "count": 192,
      "max": [
        3.929999828338623,
        3.929999828338623,
        0.08000004291534424
      ],
      "min": [
        -3.929999828338623,
        -3.929999828338623,
        -0.08000004291534424
      ],
      "type": "VEC3"
    },
    {
      "bufferView": 2,
      "byteOffset": 3689424,
      "componentType": 5126,
      "count": 192,
      "max": [
        0.9951847195625305,
        0.9951847195625305,
        1.0
      ],
      "min": [
        -0.9951847195625305,
        -0.9951847195625305,
        -1.0
      ],
      "type": "VEC3"
    },
    {
      "bufferView": 3,
      "byteOffset": 2458080,
      "componentType": 5126,
      "count": 192,
      "max": [
        1.0,
        0.9951847791671753,
        0.0,
        1.0
      ],
      "min": [
        -0.9951847791671753,
        -0.9951847791671753,
        0.0,
        -1.0
      ],
      "type": "VEC4"
    },
    {
      "bufferView": 1,
      "byteOffset": 4822032,
      "componentType": 5126,
      "count": 192,
      "max": [
        1.0,
        1.0
      ],
      "min": [
        0.0,
        0.01000000536441803
      ],
      "type": "VEC2"
    },
    {
      "bufferView": 1,
      "byteOffset": 4823568,
      "componentType": 5126,
      "count": 192,
      "max": [
        1.0,
        1.0
      ],
      "min": [
        0.0,
        0.01000000536441803
      ],
      "type": "VEC2"
    },
    {
      "bufferView": 1,
      "byteOffset": 4825104,
      "componentType": 5126,
      "count": 192,
      "max": [
        1.0,
        1.0
      ],
      "min": [
        0.0,
        0.01000000536441803
      ],
      "type": "VEC2"
    },
    {
      "bufferView": 1,
      "byteOffset": 4826640,
      "componentType": 5126,
      "count": 192,
      "max": [
        1.0,
        1.0
      ],
      "min": [
        0.0,
        0.01000000536441803
      ],
      "type": "VEC2"
    },
    {
      "bufferView": 0,
      "byteOffset": 3070416,
      "componentType": 5125,
      "count": 372,
      "type": "SCALAR"
    },
    {
      "bufferView": 2,
      "byteOffset": 3691728,
      "componentType": 5126,
      "count": 680,
      "max": [
        3.929999828338623,
        3.929999828338623,
        0.4291285276412964
      ],
      "min": [
        -3.929999828338623,
        -3.929999828338623,
        -0.08000004291534424
      ],
      "type": "VEC3"
    },
    {
      "bufferView": 2,
      "byteOffset": 3699888,
      "componentType": 5126,
      "count": 680,
      "max": [
        0.9951847195625305,
        0.9951847195625305,
        1.0
      ],
      "min": [
        -0.9951847195625305,
        -0.9951847195625305,
        -1.0
      ],
      "type": "VEC3"
    },
    {
      "bufferView": 1,
      "byteOffset": 4828176,
      "componentType": 5126,
      "count": 680,
      "max": [
        1.0,
        1.0
      ],
      "min": [
        0.0,
        0.01000000536441803
      ],
      "type": "VEC2"
    },
    {
      "bufferView": 0,
      "byteOffset": 3071904,
      "componentType": 5125,
      "count": 1194,
      "type": "SCALAR"
    },
    {
      "bufferView": 2,
      "byteOffset": 3708048,
      "componentType": 5126,
      "count": 65532,
      "max": [
        1.368497371673584,
        6.0025482177734375,
        3.2115373611450195
      ],
      "min": [
        -1.6896041631698608,
        2.6237094402313232,
        3.0098257064819336
      ],
      "type": "VEC3"
    },
    {
      "bufferView": 2,
      "byteOffset": 4494432,
      "componentType": 5126,
      "count": 65532,
      "max": [
        0.9999997019767761,
        0.9999997019767761,
        0.9998002052307129
      ],
      "min": [
        -0.9999997019767761,
        -0.9999997019767761,
        -0.9999036192893982
      ],
      "type": "VEC3"
    },
    {
      "bufferView": 1,
      "byteOffset": 4833616,
      "componentType": 5126,
      "count": 65532,
      "max": [
        1.0,
        1.0
      ],
      "min": [
        0.0,
        0.0
      ],
      "type": "VEC2"
    },
    {
      "bufferView": 0,
      "byteOffset": 3076680,
      "componentType": 5125,
      "count": 309789,
      "type": "SCALAR"
    },
    {
      "bufferView": 2,
      "byteOffset": 5280816,
      "componentType": 5126,
      "count": 65532,
      "max": [
        1.6896042823791504,
        5.246068477630615,
        3.2115373611450195
      ],
      "min": [
        -2.74857497215271,
        1.5649700164794922,
        2.4708619117736816
      ],
      "type": "VEC3"
    },
    {
      "bufferView": 2,
      "byteOffset": 6067200,
      "componentType": 5126,
      "count": 65532,
      "max": [
        0.9999997019767761,
        0.9999997019767761,
        0.9998003840446472
      ],
      "min": [
        -0.9999997019767761,
        -0.9999997019767761,
        -0.9999035000801086
      ],
      "type": "VEC3"
    },
    {
      "bufferView": 1,
      "byteOffset": 5357872,
      "componentType": 5126,
      "count": 65532,
      "max": [
        1.0,
        1.0
      ],
      "min": [
        0.0,
        0.0
      ],
      "type": "VEC2"
    },
    {
      "bufferView": 0,
      "byteOffset": 4315836,
      "componentType": 5125,
      "count": 309639,
      "type": "SCALAR"
    },
    {
      "bufferView": 2,
      "byteOffset": 6853584,
      "componentType": 5126,
      "count": 65532,
      "max": [
        2.748575210571289,
        8.44384479522705,
        3.0246472358703613
      ],
      "min": [
        -2.6515140533447266,
        2.6177570819854736,
        0.5748203992843628
      ],
      "type": "VEC3"
    },
    {
      "bufferView": 2,
      "byteOffset": 7639968,
      "componentType": 5126,
      "count": 65532,
      "max": [
        0.9999997019767761,
        0.9999995231628418,
        0.9902920722961426
      ],
      "min": [
        -0.9999997019767761,
        -0.9999995827674866,
        -0.9822006821632385
      ],
      "type": "VEC3"
    },
    {
      "bufferView": 1,
      "byteOffset": 5882128,
      "componentType": 5126,
      "count": 65532,
      "max": [
        1.0,
        1.0
      ],
      "min": [
        0.0,
        0.0
      ],
      "type": "VEC2"
    },
    {
      "bufferView": 0,
      "byteOffset": 5554392,
      "componentType": 5125,
      "count": 309216,
      "type": "SCALAR"
    },
    {
      "bufferView": 2,
      "byteOffset": 8426352,
      "componentType": 5126,
      "count": 65532,
      "max": [
        4.1309003829956055,
        8.154457092285156,
        1.6409714221954346
      ],
      "min": [
        -4.122767925262451,
        0.0005682557821273804,
        -0.5966672301292419
      ],
      "type": "VEC3"
    },
    {
      "bufferView": 2,
      "byteOffset": 9212736,
      "componentType": 5126,
      "count": 65532,
      "max": [
        0.9999997019767761,
        0.9999997019767761,
        0.9999358057975769
      ],
      "min": [
        -0.9999997019767761,
        -0.9999997019767761,
        -0.9999334216117859
      ],
      "type": "VEC3"
    },
    {
      "bufferView": 1,
      "byteOffset": 6406384,
      "componentType": 5126,
      "count": 65532,
      "max": [
        1.0,
        1.0
      ],
      "min": [
        0.0,
        0.0
      ],
      "type": "VEC2"
    },
    {
      "bufferView": 0,
      "byteOffset": 6791256,
      "componentType": 5125,
      "count": 309495,
      "type": "SCALAR"
    },
    {
      "bufferView": 2,
      "byteOffset": 9999120,
      "componentType": 5126,
      "count": 65532,
      "max": [
        4.320348262786865,
        8.628868103027344,
        3.2115373611450195
      ],
      "min": [
        -4.320348262786865,
        -0.007404212839901447,
        -0.5966672301292419
      ],
      "type": "VEC3"
    },
    {
      "bufferView": 2,
      "byteOffset": 10785504,
      "componentType": 5126,
      "count": 65532,
      "max": [
        0.9999997615814209,
        0.9999997615814209,
        0.9999358057975769
      ],
      "min": [
        -0.9999997615814209,
        -0.9999997615814209,
        -0.9999999403953552
      ],
      "type": "VEC3"
    },
    {
      "bufferView": 1,
      "byteOffset": 6930640,
      "componentType": 5126,
      "count": 65532,
      "max": [
        1.0,
        1.0
      ],
      "min": [
        0.0,
        0.0
      ],
      "type": "VEC2"
    },
    {
      "bufferView": 0,
      "byteOffset": 8029236,
      "componentType": 5125,
      "count": 249615,
      "type": "SCALAR"
    },
    {
      "bufferView": 2,
      "byteOffset": 11571888,
      "componentType": 5126,
      "count": 65532,
      "max": [
        3.6935627460479736,
        8.633292198181152,
        1.6409714221954346
      ],
      "min": [
        -4.138917922973633,
        3.084962844848633,
        -0.5966672301292419
      ],
      "type": "VEC3"
    },
    {
      "bufferView": 2,
      "byteOffset": 12358272,
      "componentType": 5126,
      "count": 65532,
      "max": [
        0.9999997019767761,
        0.9999997019767761,
        0.9999358057975769
      ],
      "min": [
        -0.9999996423721313,
        -0.9999997019767761,
        -0.9999335408210754
      ],
      "type": "VEC3"
    },
    {
      "bufferView": 1,
      "byteOffset": 7454896,
      "componentType": 5126,
      "count": 65532,
      "max": [
        1.0,
        1.0
      ],
      "min": [
        0.0,
        0.0
      ],
      "type": "VEC2"
    },
    {
      "bufferView": 0,
      "byteOffset": 9027696,
      "componentType": 5125,
      "count": 309189,
      "type": "SCALAR"
    },
    {
      "bufferView": 2,
      "byteOffset": 13144656,
      "componentType": 5126,
      "count": 65532,
      "max": [
        3.5887696743011475,
        7.588498115539551,
        2.4834671020507813
      ],
      "min": [
        -4.032374858856201,
        0.1859031319618225,
        0.5748203992843628
      ],
      "type": "VEC3"
    },
    {
      "bufferView": 2,
      "byteOffset": 13931040,
      "componentType": 5126,
      "count": 65532,
      "max": [
        0.9999996423721313,
        0.9999996423721313,
        0.9508174061775208
      ],
      "min": [
        -0.9999996423721313,
        -0.9999996423721313,
        -0.9500729441642761
      ],
      "type": "VEC3"
    },
    {
      "bufferView": 1,
      "byteOffset": 7979152,
      "componentType": 5126,
      "count": 65532,
      "max": [
        1.0,
        1.0
      ],
      "min": [
        0.0,
        0.0
      ],
      "type": "VEC2"
    },
    {
      "bufferView": 0,
      "byteOffset": 10264452,
      "componentType": 5125,
      "count": 309843,
      "type": "SCALAR"
    },
    {
      "bufferView": 2,
      "byteOffset": 14717424,
      "componentType": 5126,
      "count": 65532,
      "max": [
        1.4728233814239502,
        7.901713848114014,
        3.0246472358703613
      ],
      "min": [
        -3.5887694358825684,
        0.7249592542648315,
        1.6318161487579346
      ],
      "type": "VEC3"
    },
    {
      "bufferView": 2,
      "byteOffset": 15503808,
      "componentType": 5126,
      "count": 65532,
      "max": [
        0.9999996423721313,
        0.9999996423721313,
        0.9902863502502441
      ],
      "min": [
        -0.9999996423721313,
        -0.9999996423721313,
        -0.9821986556053162
      ],
      "type": "VEC3"
    },
    {
      "bufferView": 1,
      "byteOffset": 8503408,
      "componentType": 5126,
      "count": 65532,
      "max": [
        1.0,
        1.0
      ],
      "min": [
        0.0,
        0.0
      ],
      "type": "VEC2"
    },
    {
      "bufferView": 0,
      "byteOffset": 11503824,
      "componentType": 5125,
      "count": 309849,
      "type": "SCALAR"
    },
    {
      "bufferView": 2,
      "byteOffset": 16290192,
      "componentType": 5126,
      "count": 7641,
      "max": [
        2.1642818450927734,
        3.3256494998931885,
        3.0246472358703613
      ],
      "min": [
        0.693637490272522,
        1.804254174232483,
        2.4708619117736816
      ],
      "type": "VEC3"
    },
    {
      "bufferView": 2,
      "byteOffset": 16381884,
      "componentType": 5126,
      "count": 7641,
      "max": [
        0.9887781739234924,
        0.9820427298545837,
        0.9902877807617188
      ],
      "min": [
        -0.9889734983444214,
        -0.9808645844459534,
        -0.9821979999542236
      ],
      "type": "VEC3"
    },
    {
      "bufferView": 1,
      "byteOffset": 9027664,
      "componentType": 5126,
      "count": 7641,
      "max": [
        1.0,
        1.0
      ],
      "min": [
        0.0,
        0.0
      ],
      "type": "VEC2"
    },
    {
      "bufferView": 0,
      "byteOffset": 12743220,
      "componentType": 5125,
      "count": 35685,
      "type": "SCALAR"
    },
    {
      "bufferView": 2,
      "byteOffset": 16473576,
      "componentType": 5126,
      "count": 6132,
      "max": [
        5.722452163696289,
        5.722452163696289,
        0.5000000596046448
      ],
      "min": [
        -5.722452163696289,
        -5.722452163696289,
        -0.5000000596046448
      ],
      "type": "VEC3"
    },
    {
      "bufferView": 2,
      "byteOffset": 16547160,
      "componentType": 5126,
      "count": 6132,
      "max": [
        1.0,
        1.0,
        1.0
      ],
      "min": [
        -1.0,
        -1.0,
        -1.0
      ],
      "type": "VEC3"
    },
    {
      "bufferView": 3,
      "byteOffset": 2461152,
      "componentType": 5126,
      "count": 6132,
      "max": [
        0.9999987483024597,
        0.9999926686286926,
        0.9999562501907349,
        1.0
      ],
      "min": [
        -0.9999999403953552,
        -0.9999945759773254,
        -0.9998860955238342,
        -1.0
      ],
      "type": "VEC4"
    },
    {
      "bufferView": 1,
      "byteOffset": 9088792,
      "componentType": 5126,
      "count": 6132,
      "max": [
        0.585525631904602,
        0.9998999834060669
      ],
      "min": [
        0.00010009119432652369,
        0.00010009119432652369
      ],
      "type": "VEC2"
    },
    {
      "bufferView": 1,
      "byteOffset": 9137848,
      "componentType": 5126,
      "count": 6132,
      "max": [
        0.585525631904602,
        0.9998999834060669
      ],
      "min": [
        0.00010009119432652369,
        0.00010009119432652369
      ],
      "type": "VEC2"
    },
    {
      "bufferView": 1,
      "byteOffset": 9186904,
      "componentType": 5126,
      "count": 6132,
      "max": [
        0.585525631904602,
        0.9998999834060669
      ],
      "min": [
        0.00010009119432652369,
        0.00010009119432652369
      ],
      "type": "VEC2"
    },
    {
      "bufferView": 1,
      "byteOffset": 9235960,
      "componentType": 5126,
      "count": 6132,
      "max": [
        0.585525631904602,
        0.9998999834060669
      ],
      "min": [
        0.00010009119432652369,
        0.00010009119432652369
      ],
      "type": "VEC2"
    },
    {
      "bufferView": 0,
      "byteOffset": 12885960,
      "componentType": 5125,
      "count": 32256,
      "type": "SCALAR"
    }
  ],
  "asset": {
    "extras": {
      "author": "dbPieter (https://sketchfab.com/dbPieter)",
      "license": "CC-BY-SA-4.0 (http://creativecommons.org/licenses/by-sa/4.0/)",
      "source": "https://sketchfab.com/3d-models/gazebo-sketchfab-export-560e52db5c324a82878d5511913568ab",
      "title": "Gazebo (Sketchfab export)"
    },
    "generator": "Sketchfab-16.59.0",
    "version": "2.0"
  },
  "bufferViews": [
    {
      "buffer": 0,
      "byteLength": 13014984,
      "name": "floatBufferViews",
      "target": 34963
    },
    {
      "buffer": 0,
      "byteLength": 9285016,
      "byteOffset": 13014984,
      "byteStride": 8,
      "name": "floatBufferViews",
      "target": 34962
    },
    {
      "buffer": 0,
      "byteLength": 16620744,
      "byteOffset": 22300000,
      "byteStride": 12,
      "name": "floatBufferViews",
      "target": 34962
    },
    {
      "buffer": 0,
      "byteLength": 2559264,
      "byteOffset": 38920744,
      "byteStride": 16,
      "name": "floatBufferViews",
      "target": 34962
    }
  ],
  "buffers": [
    {
      "byteLength": 41480008,
      "uri": "scene.bin"
    }
  ],
  "images": [
    {
      "uri": "textures/Bench_Broken_Part_baseColor.png"
    },
    {
      "uri": "textures/Bench_Broken_Part_metallicRoughness.png"
    },
    {
      "uri": "textures/Bench_Broken_Part_normal.png"
    },
    {
      "uri": "textures/Benches_baseColor.png"
    },
    {
      "uri": "textures/Benches_metallicRoughness.png"
    },
    {
      "uri": "textures/Benches_normal.png"
    },
    {
      "uri": "textures/Circular_Stairs_baseColor.png"
    },
    {
      "uri": "textures/Circular_Stairs_metallicRoughness.png"
    },
    {
      "uri": "textures/Circular_Stairs_normal.png"
    },
    {
      "uri": "textures/Column.001_baseColor.png"
    },
    {
      "uri": "textures/Column.001_metallicRoughness.png"
    },
    {
      "uri": "textures/Column.001_normal.png"
    },
    {
      "uri": "textures/Column.005_baseColor.png"
    },
    {
      "uri": "textures/Column.005_metallicRoughness.png"
    },
    {
      "uri": "textures/Column.005_normal.png"
    },
    {
      "uri": "textures/Column.002_baseColor.png"
    },
    {
      "uri": "textures/Column.002_metallicRoughness.png"
    },
    {
      "uri": "textures/Column.002_normal.png"
    },
    {
      "uri": "textures/Column.003_baseColor.png"
    },
    {
      "uri": "textures/Column.003_metallicRoughness.png"
    },
    {
      "uri": "textures/Column.003_normal.png"
    },
    {
      "uri": "textures/Column.004_baseColor.png"
    },
    {
      "uri": "textures/Column.004_metallicRoughness.png"
    },
    {
      "uri": "textures/Column.004_normal.png"
    },
    {
      "uri": "textures/Column.006_baseColor.png"
    },
    {
      "uri": "textures/Column.006_metallicRoughness.png"
    },
    {
      "uri": "textures/Column.006_normal.png"
    },
    {
      "uri": "textures/Middle_baseColor.png"
    },
    {
      "uri": "textures/Middle_metallicRoughness.png"
    },
    {
      "uri": "textures/Middle_normal.png"
    },
    {
      "uri": "textures/Upper_Circle_baseColor.png"
    },
    {
      "uri": "textures/Upper_Circle_metallicRoughness.png"
    },
    {
      "uri": "textures/Upper_Circle_normal.png"
    }
  ],
  "materials": [
    {
      "alphaMode": "BLEND",
      "doubleSided": true,
      "name": "Bench_Broken_Part",
      "normalTexture": {
        "index": 2
      },
      "pbrMetallicRoughness": {
        "baseColorTexture": {
          "index": 0
        },
        "metallicFactor": 0.0,
        "metallicRoughnessTexture": {
          "index": 1
        }
      }
    },
    {
      "alphaMode": "BLEND",
      "doubleSided": true,
      "name": "Benches",
      "normalTexture": {
        "index": 5
      },
      "pbrMetallicRoughness": {
        "baseColorTexture": {
          "index": 3
        },
        "metallicFactor": 0.0,
        "metallicRoughnessTexture": {
          "index": 4
        }
      }
    },
    {
      "alphaMode": "BLEND",
      "doubleSided": true,
      "name": "Circular_Stairs",
      "normalTexture": {
        "index": 8
      },
      "pbrMetallicRoughness": {
        "baseColorTexture": {
          "index": 6
        },
        "metallicFactor": 0.0,
        "metallicRoughnessTexture": {
          "index": 7
        }
      }
    },
    {
      "alphaMode": "BLEND",
      "doubleSided": true,
      "name": "Column.001",
      "normalTexture": {
        "index": 11
      },
      "pbrMetallicRoughness": {
        "baseColorTexture": {
          "index": 9
        },
        "metallicFactor": 0.0,
        "metallicRoughnessTexture": {
          "index": 10
        }
      }
    },
    {
      "alphaMode": "BLEND",
      "doubleSided": true,
      "name": "Column.005",
      "normalTexture": {
        "index": 14
      },
      "pbrMetallicRoughness": {
        "baseColorTexture": {
          "index": 12
        },
        "metallicFactor": 0.0,
        "metallicRoughnessTexture": {
          "index": 13
        }
      }
    },
    {
      "alphaMode": "BLEND",
      "doubleSided": true,
      "name": "Column.002",
      "normalTexture": {
        "index": 17
      },
      "pbrMetallicRoughness": {
        "baseColorTexture": {
          "index": 15
        },
        "metallicFactor": 0.0,
        "metallicRoughnessTexture": {
          "index": 16
        }
      }
    },
    {
      "alphaMode": "BLEND",
      "doubleSided": true,
      "name": "Column.003",
      "normalTexture": {
        "index": 20
      },
      "pbrMetallicRoughness": {
        "baseColorTexture": {
          "index": 18
        },
        "metallicFactor": 0.0,
        "metallicRoughnessTexture": {
          "index": 19
        }
      }
    },
    {
      "alphaMode": "BLEND",
      "doubleSided": true,
      "name": "Column.004",
      "normalTexture": {
        "index": 23,
        "texCoord": 1
      },
      "pbrMetallicRoughness": {
        "baseColorTexture": {
          "index": 21
        },
        "metallicFactor": 0.0,
        "metallicRoughnessTexture": {
          "index": 22
        }
      }
    },
    {
      "alphaMode": "BLEND",
      "doubleSided": true,
      "name": "Column.006",
      "normalTexture": {
        "index": 26
      },
      "pbrMetallicRoughness": {
        "baseColorTexture": {
          "index": 24
        },
        "metallicFactor": 0.0,
        "metallicRoughnessTexture": {
          "index": 25
        }
      }
    },
    {
      "alphaMode": "BLEND",
      "doubleSided": true,
      "name": "Middle",
      "normalTexture": {
        "index": 29
      },
      "pbrMetallicRoughness": {
        "baseColorTexture": {
          "index": 27
        },
        "metallicFactor": 0.0,
        "metallicRoughnessTexture": {
          "index": 28
        }
      }
    },
    {
      "doubleSided": true,
      "name": "Mortar.001",
      "pbrMetallicRoughness": {
        "baseColorFactor": [
          0.106525,
          0.0962661,
          0.0690563,
          1.0
        ],
        "metallicFactor": 0.0,
        "roughnessFactor": 0.9887332665577309
      }
    },
    {
      "doubleSided": true,
      "name": "Metal",
      "pbrMetallicRoughness": {
        "baseColorFactor": [
          0.00825391,
          0.00825391,
          0.00825391,
          1.0
        ],
        "metallicFactor": 0.0,
        "roughnessFactor": 0.9974681756552503
      }
    },
    {
      "alphaMode": "BLEND",
      "doubleSided": true,
      "name": "Upper_Circle",
      "normalTexture": {
        "index": 32
      },
      "pbrMetallicRoughness": {
        "baseColorTexture": {
          "index": 30
        },
        "metallicFactor": 0.0,
        "metallicRoughnessTexture": {
          "index": 31
        }
      }
    }
  ],
  "meshes": [
    {
      "name": "Bench Broken Part_Bench Broken Part_0",
      "primitives": [
        {
          "attributes": {
            "NORMAL": 1,
            "POSITION": 0,
            "TANGENT": 2,
            "TEXCOORD_0": 3,
            "TEXCOORD_1": 4,
            "TEXCOORD_2": 5,
            "TEXCOORD_3": 6
          },
          "indices": 7,
          "material": 0,
          "mode": 4
        }
      ]
    },
    {
      "name": "Benches_Benches_0",
      "primitives": [
        {
          "attributes": {
            "NORMAL": 9,
            "POSITION": 8,
            "TANGENT": 10,
            "TEXCOORD_0": 11,
            "TEXCOORD_1": 12,
            "TEXCOORD_2": 13,
            "TEXCOORD_3": 14
          },
          "indices": 15,
          "material": 1,
          "mode": 4
        }
      ]
    },
    {
      "name": "Circular Stairs_Circular Stairs_0",
      "primitives": [
        {
          "attributes": {
            "NORMAL": 17,
            "POSITION": 16,
            "TANGENT": 18,
            "TEXCOORD_0": 19,
            "TEXCOORD_1": 20,
            "TEXCOORD_2": 21,
            "TEXCOORD_3": 22
          },
          "indices": 23,
          "material": 2,
          "mode": 4
        }
      ]
    },
    {
      "name": "Columns_Column.001_0",
      "primitives": [
        {
          "attributes": {
            "NORMAL": 25,
            "POSITION": 24,
            "TANGENT": 26,
            "TEXCOORD_0": 27,
            "TEXCOORD_1": 28,
            "TEXCOORD_2": 29
          },
          "indices": 30,
          "material": 3,
          "mode": 4
        }
      ]
    },
    {
      "name": "Columns_Column.005_0",
      "primitives": [
        {
          "attributes": {
            "NORMAL": 32,
            "POSITION": 31,
            "TANGENT": 33,
            "TEXCOORD_0": 34,
            "TEXCOORD_1": 35,
            "TEXCOORD_2": 36,
            "TEXCOORD_3": 37
          },
          "indices": 38,
          "material": 4,
          "mode": 4
        }
      ]
    },
    {
      "name": "Columns_Column.002_0",
      "primitives": [
        {
          "attributes": {
            "NORMAL": 40,
            "POSITION": 39,
            "TANGENT": 41,
            "TEXCOORD_0": 42,
            "TEXCOORD_1": 43,
            "TEXCOORD_2": 44,
            "TEXCOORD_3": 45
          },
          "indices": 46,
          "material": 5,
          "mode": 4
        }
      ]
    },
    {
      "name": "Columns_Column.003_0",
      "primitives": [
        {
          "attributes": {
            "NORMAL": 48,
            "POSITION": 47,
            "TANGENT": 49,
            "TEXCOORD_0": 50,
            "TEXCOORD_1": 51,
            "TEXCOORD_2": 52,
            "TEXCOORD_3": 53
          },
          "indices": 54,
          "material": 6,
          "mode": 4
        }
      ]
    },
    {
      "name": "Columns_Column.004_0",
      "primitives": [
        {
          "attributes": {
            "NORMAL": 56,
            "POSITION": 55,
            "TANGENT": 57,
            "TEXCOORD_0": 58,
            "TEXCOORD_1": 59,
            "TEXCOORD_2": 60,
            "TEXCOORD_3": 61
          },
          "indices": 62,
          "material": 7,
          "mode": 4
        }
      ]
    },
    {
      "name": "Columns_Column.006_0",
      "primitives": [
        {
          "attributes": {
            "NORMAL": 64,
            "POSITION": 63,
            "TANGENT": 65,
            "TEXCOORD_0": 66,
            "TEXCOORD_1": 67,
            "TEXCOORD_2": 68,
            "TEXCOORD_3": 69
          },
          "indices": 70,
          "material": 8,
          "mode": 4
        }
      ]
    },
    {
      "name": "Middle_Middle_0",
      "primitives": [
        {
          "attributes": {
            "NORMAL": 72,
            "POSITION": 71,
            "TANGENT": 73,
            "TEXCOORD_0": 74,
            "TEXCOORD_1": 75,
            "TEXCOORD_2": 76,
            "TEXCOORD_3": 77
          },
          "indices": 78,
          "material": 9,
          "mode": 4
        }
      ]
    },
    {
      "name": "Mortar_Mortar.001_0",
      "primitives": [
        {
          "attributes": {
            "NORMAL": 80,
            "POSITION": 79,
            "TEXCOORD_0": 81
          },
          "indices": 82,
          "material": 10,
          "mode": 4
        }
      ]
    },
    {
      "name": "Ornate Roof_Metal_0",
      "primitives": [
        {
          "attributes": {
            "NORMAL": 84,
            "POSITION": 83,
            "TEXCOORD_0": 85
          },
          "indices": 86,
          "material": 11,
          "mode": 4
        }
      ]
    },
    {
      "name": "Ornate Roof_Metal_0",
      "primitives": [
        {
          "attributes": {
            "NORMAL": 88,
            "POSITION": 87,
            "TEXCOORD_0": 89
          },
          "indices": 90,
          "material": 11,
          "mode": 4
        }
      ]
    },
    {
      "name": "Ornate Roof_Metal_0",
      "primitives": [
        {
          "attributes": {
            "NORMAL": 92,
            "POSITION": 91,
            "TEXCOORD_0": 93
          },
          "indices": 94,
          "material": 11,
          "mode": 4
        }
      ]
    },
    {
      "name": "Ornate Roof_Metal_0",
      "primitives": [
        {
          "attributes": {
            "NORMAL": 96,
            "POSITION": 95,
            "TEXCOORD_0": 97
          },
          "indices": 98,
          "material": 11,
          "mode": 4
        }
      ]
    },
    {
      "name": "Ornate Roof_Metal_0",
      "primitives": [
        {
          "attributes": {
            "NORMAL": 100,
            "POSITION": 99,
            "TEXCOORD_0": 101
          },
          "indices": 102,
          "material": 11,
          "mode": 4
        }
      ]
    },
    {
      "name": "Ornate Roof_Metal_0",
      "primitives": [
        {
          "attributes": {
            "NORMAL": 104,
            "POSITION": 103,
            "TEXCOORD_0": 105
          },
          "indices": 106,
          "material": 11,
          "mode": 4
        }
      ]
    },
    {
      "name": "Ornate Roof_Metal_0",
      "primitives": [
        {
          "attributes": {
            "NORMAL": 108,
            "POSITION": 107,
            "TEXCOORD_0": 109
          },
          "indices": 110,
          "material": 11,
          "mode": 4
        }
      ]
    },
    {
      "name": "Ornate Roof_Metal_0",
      "primitives": [
        {
          "attributes": {
            "NORMAL": 112,
            "POSITION": 111,
            "TEXCOORD_0": 113
          },
          "indices": 114,
          "material": 11,
          "mode": 4
        }
      ]
    },
    {
      "name": "Ornate Roof_Metal_0",
      "primitives": [
        {
          "attributes": {
            "NORMAL": 116,
            "POSITION": 115,
            "TEXCOORD_0": 117
          },
          "indices": 118,
          "material": 11,
          "mode": 4
        }
      ]
    },
    {
      "name": "Upper Circle_Upper Circle_0",
      "primitives": [
        {
          "attributes": {
            "NORMAL": 120,
            "POSITION": 119,
            "TANGENT": 121,
            "TEXCOORD_0": 122,
            "TEXCOORD_1": 123,
            "TEXCOORD_2": 124,
            "TEXCOORD_3": 125
          },
          "indices": 126,
          "material": 12,
          "mode": 4
        }
      ]
    }
  ],
  "nodes": [
    {
      "children": [
        1
      ],
      "matrix": [
        0.6517098546028137,
        0.0,
        0.0,
        0.0,
        0.0,
        1.4470865719103137e-16,
        -0.6517098546028137,
        0.0,
        0.0,
        0.6517098546028137,
        1.4470865719103137e-16,
        0.0,
        0.0,
        0.0,
        0.0,
        1.0
      ],
      "name": "Sketchfab_model"
    },
    {
      "children": [
        2
      ],
      "matrix": [
        0.009999999776482582,
        0.0,
        0.0,
        0.0,
        0.0,
        0.0,
        0.009999999776482582,
        0.0,
        0.0,
        -0.009999999776482582,
        0.0,
        0.0,
        0.0,
        0.0,
        0.0,
        1.0
      ],
      "name": "Gazebo sketchfab.fbx"
    },
    {
      "children": [
        3,
        5,
        7,
        9,
        16,
        18,
        20,
        30
      ],
      "name": "RootNode"
    },
    {
      "children": [
        4
      ],
      "matrix": [
        110.06352956554288,
        1.7363504196575884e-06,
        40.55741462672172,
        0.0,
        40.55741462672148,
        -1.8470484622860502e-05,
        -110.06352956554144,
        0.0,
        4.055606761532715e-06,
        99.99999999999875,
        -1.528720314780685e-05,
        0.0,
        98.93943786621094,
        88.24028778076172,
        115.04120635986328,
        1.0
      ],
      "name": "Bench Broken Part"
    },
    {
      "mesh": 0,
      "name": "Bench Broken Part_Bench Broken Part_0"
    },
    {
      "children": [
        6
      ],
      "matrix": [
        117.29827117919922,
        0.0,
        0.0,
        0.0,
        0.0,
        -1.9110314032002413e-05,
        -117.29827117919767,
        0.0,
        0.0,
        99.99999999999868,
        -1.629206793918314e-05,
        0.0,
        0.0,
        128.4312744140625,
        0.0,
        1.0
      ],
      "name": "Benches"
    },
    {
      "mesh": 1,
      "name": "Benches_Benches_0"
    },
    {
      "children": [
        8
      ],
      "matrix": [
        100.0,
        0.0,
        0.0,
        0.0,
        0.0,
        -1.629206793918314e-05,
        -99.99999999999868,
        0.0,
        0.0,
        99.99999999999868,
        -1.629206793918314e-05,
        0.0,
        0.0,
        0.0,
        0.0,
        1.0
      ],
      "name": "Circular Stairs"
    },
    {
      "mesh": 2,
      "name": "Circular Stairs_Circular Stairs_0"
    },
    {
      "children": [
        10,
        11,
        12,
        13,
        14,
        15
      ],
      "matrix": [
        7.549788807864354e-06,
        -1.1102228552185671e-14,
        -99.99998474121065,
        0.0,
        -95.17445373535121,
        -4.160207671267919e-06,
        -7.185471347190283e-06,
        0.0,
        -4.160207671267919e-06,
        95.17445373535148,
        -3.3812758365794893e-13,
        0.0,
        -28.253755569458008,
        608.4866943359375,
        436.2820739746094,
        1.0
      ],
      "name": "Columns"
    },
    {
      "mesh": 3,
      "name": "Columns_Column.001_0"
    },
    {
      "mesh": 4,
      "name": "Columns_Column.005_0"
    },
    {
      "mesh": 5,
      "name": "Columns_Column.002_0"
    },
    {
      "mesh": 6,
      "name": "Columns_Column.003_0"
    },
    {
      "mesh": 7,
      "name": "Columns_Column.004_0"
    },
    {
      "mesh": 8,
      "name": "Columns_Column.006_0"
    },
    {
      "children": [
        17
      ],
      "matrix": [
        98.12279510498047,
        0.0,
        0.0,
        0.0,
        0.0,
        -1.5986232442328886e-05,
        -98.12279510497918,
        0.0,
        0.0,
        101.07072448730335,
        -1.646651110009629e-05,
        0.0,
        0.0,
        66.51654052734375,
        0.0,
        1.0
      ],
      "name": "Middle"
    },
    {
      "mesh": 9,
      "name": "Middle_Middle_0"
    },
    {
      "children": [
        19
      ],
      "matrix": [
        147.45700073242188,
        0.0,
        0.0,
        0.0,
        0.0,
        -2.4023794740407954e-05,
        -147.4570007324199,
        0.0,
        0.0,
        150.92791748046676,
        -2.4589278855112237e-05,
        0.0,
        0.0,
        12.7423734664917,
        0.0,
        1.0
      ],
      "name": "Mortar"
    },
    {
      "mesh": 10,
      "name": "Mortar_Mortar.001_0"
    },
    {
      "children": [
        21,
        22,
        23,
        24,
        25,
        26,
        27,
        28,
        29
      ],
      "matrix": [
        100.0,
        0.0,
        0.0,
        0.0,
        -0.0,
        -1.629206793918314e-05,
        -99.99999999999868,
        0.0,
        0.0,
        99.99999999999868,
        -1.629206793918314e-05,
        0.0,
        -1.238429069519043,
        784.1561889648438,
        428.8587951660156,
        1.0
      ],
      "name": "Ornate Roof"
    },
    {
      "mesh": 11,
      "name": "Ornate Roof_Metal_0"
    },
    {
      "mesh": 12,
      "name": "Ornate Roof_Metal_0"
    },
    {
      "mesh": 13,
      "name": "Ornate Roof_Metal_0"
    },
    {
      "mesh": 14,
      "name": "Ornate Roof_Metal_0"
    },
    {
      "mesh": 15,
      "name": "Ornate Roof_Metal_0"
    },
    {
      "mesh": 16,
      "name": "Ornate Roof_Metal_0"
    },
    {
      "mesh": 17,
      "name": "Ornate Roof_Metal_0"
    },
    {
      "mesh": 18,
      "name": "Ornate Roof_Metal_0"
    },
    {
      "mesh": 19,
      "name": "Ornate Roof_Metal_0"
    },
    {
      "children": [
        31
      ],
      "matrix": [
        100.0,
        0.0,
        0.0,
        0.0,
        -0.0,
        -1.629206793918314e-05,
        -99.99999999999868,
        0.0,
        0.0,
        99.99999999999868,
        -1.629206793918314e-05,
        0.0,
        -4.371007526060566e-05,
        674.6829223632813,
        5.099508416606113e-05,
        1.0
      ],
      "name": "Upper Circle"
    },
    {
      "mesh": 20,
      "name": "Upper Circle_Upper Circle_0"
    }
  ],
  "samplers": [
    {
      "magFilter": 9729,
      "minFilter": 9987,
      "wrapS": 10497,
      "wrapT": 10497
    }
  ],
  "scene": 0,
  "scenes": [
    {
      "name": "Sketchfab_Scene",
      "nodes": [
        0
      ]
    }
  ],
  "textures": [
    {
      "sampler": 0,
      "source": 0
    },
    {
      "sampler": 0,
      "source": 1
    },
    {
      "sampler": 0,
      "source": 2
    },
    {
      "sampler": 0,
      "source": 3
    },
    {
      "sampler": 0,
      "source": 4
    },
    {
      "sampler": 0,
      "source": 5
    },
    {
      "sampler": 0,
      "source": 6
    },
    {
      "sampler": 0,
      "source": 7
    },
    {
      "sampler": 0,
      "source": 8
    },
    {
      "sampler": 0,
      "source": 9
    },
    {
      "sampler": 0,
      "source": 10
    },
    {
      "sampler": 0,
      "source": 11
    },
    {
      "sampler": 0,
      "source": 12
    },
    {
      "sampler": 0,
      "source": 13
    },
    {
      "sampler": 0,
      "source": 14
    },
    {
      "sampler": 0,
      "source": 15
    },
    {
      "sampler": 0,
      "source": 16
    },
    {
      "sampler": 0,
      "source": 17
    },
    {
      "sampler": 0,
      "source": 18
    },
    {
      "sampler": 0,
      "source": 19
    },
    {
      "sampler": 0,
      "source": 20
    },
    {
      "sampler": 0,
      "source": 21
    },
    {
      "sampler": 0,
      "source": 22
    },
    {
      "sampler": 0,
      "source": 23
    },
    {
      "sampler": 0,
      "source": 24
    },
    {
      "sampler": 0,
      "source": 25
    },
    {
      "sampler": 0,
      "source": 26
    },
    {
      "sampler": 0,
      "source": 27
    },
    {
      "sampler": 0,
      "source": 28
    },
    {
      "sampler": 0,
      "source": 29
    },
    {
      "sampler": 0,
      "source": 30
    },
    {
      "sampler": 0,
      "source": 31
    },
    {
      "sampler": 0,
      "source": 32
    }
  ]
}
